<mxfile host="app.diagrams.net" agent="Mozilla/5.0 (Windows NT 10.0; Win64; x64; rv:130.0) Gecko/20100101 Firefox/130.0" version="24.7.13">
  <diagram name="Page-1" id="mZKqqnFGTeDqYqMcj5Zz">
    <mxGraphModel dx="1221" dy="761" grid="1" gridSize="10" guides="1" tooltips="1" connect="1" arrows="1" fold="1" page="1" pageScale="1" pageWidth="850" pageHeight="1100" math="0" shadow="0">
      <root>
        <mxCell id="0" />
        <mxCell id="1" parent="0" />
        <mxCell id="4709RAhHiRO5XMdh3wOW-11" style="edgeStyle=orthogonalEdgeStyle;rounded=0;orthogonalLoop=1;jettySize=auto;html=1;entryX=0.25;entryY=1;entryDx=0;entryDy=0;" edge="1" parent="1" source="4709RAhHiRO5XMdh3wOW-8" target="4709RAhHiRO5XMdh3wOW-4">
          <mxGeometry relative="1" as="geometry">
            <Array as="points">
              <mxPoint x="490" y="430" />
              <mxPoint x="550" y="430" />
            </Array>
          </mxGeometry>
        </mxCell>
        <mxCell id="4709RAhHiRO5XMdh3wOW-1" value="Module" style="rounded=1;whiteSpace=wrap;html=1;" vertex="1" parent="1">
          <mxGeometry x="360" y="320" width="120" height="30" as="geometry" />
        </mxCell>
        <mxCell id="4709RAhHiRO5XMdh3wOW-23" style="edgeStyle=orthogonalEdgeStyle;rounded=0;orthogonalLoop=1;jettySize=auto;html=1;entryX=0.5;entryY=0;entryDx=0;entryDy=0;" edge="1" parent="1" source="4709RAhHiRO5XMdh3wOW-2" target="4709RAhHiRO5XMdh3wOW-3">
          <mxGeometry relative="1" as="geometry" />
        </mxCell>
        <mxCell id="4709RAhHiRO5XMdh3wOW-2" value="ModuleCompletion" style="rounded=1;whiteSpace=wrap;html=1;" vertex="1" parent="1">
          <mxGeometry x="40" y="240" width="120" height="30" as="geometry" />
        </mxCell>
        <mxCell id="4709RAhHiRO5XMdh3wOW-22" style="edgeStyle=orthogonalEdgeStyle;rounded=0;orthogonalLoop=1;jettySize=auto;html=1;entryX=0;entryY=0.5;entryDx=0;entryDy=0;" edge="1" parent="1" source="4709RAhHiRO5XMdh3wOW-3" target="4709RAhHiRO5XMdh3wOW-1">
          <mxGeometry relative="1" as="geometry" />
        </mxCell>
        <mxCell id="4709RAhHiRO5XMdh3wOW-3" value="ModuleSubscription" style="rounded=1;whiteSpace=wrap;html=1;" vertex="1" parent="1">
          <mxGeometry x="40" y="320" width="120" height="30" as="geometry" />
        </mxCell>
        <mxCell id="4709RAhHiRO5XMdh3wOW-4" value="ModuleCompletable Item" style="rounded=1;whiteSpace=wrap;html=1;" vertex="1" parent="1">
          <mxGeometry x="520" y="370" width="120" height="30" as="geometry" />
        </mxCell>
        <mxCell id="4709RAhHiRO5XMdh3wOW-17" style="edgeStyle=orthogonalEdgeStyle;rounded=0;orthogonalLoop=1;jettySize=auto;html=1;entryX=1;entryY=0.5;entryDx=0;entryDy=0;" edge="1" parent="1" source="4709RAhHiRO5XMdh3wOW-5" target="4709RAhHiRO5XMdh3wOW-16">
          <mxGeometry relative="1" as="geometry" />
        </mxCell>
        <mxCell id="4709RAhHiRO5XMdh3wOW-5" value="EnrollableModule" style="rounded=1;whiteSpace=wrap;html=1;" vertex="1" parent="1">
          <mxGeometry x="360" y="480" width="120" height="30" as="geometry" />
        </mxCell>
        <mxCell id="4709RAhHiRO5XMdh3wOW-12" style="edgeStyle=orthogonalEdgeStyle;rounded=0;orthogonalLoop=1;jettySize=auto;html=1;entryX=0;entryY=0.5;entryDx=0;entryDy=0;" edge="1" parent="1" source="4709RAhHiRO5XMdh3wOW-6" target="4709RAhHiRO5XMdh3wOW-4">
          <mxGeometry relative="1" as="geometry" />
        </mxCell>
        <mxCell id="4709RAhHiRO5XMdh3wOW-6" value="ModuleItem" style="rounded=1;whiteSpace=wrap;html=1;" vertex="1" parent="1">
          <mxGeometry x="200" y="370" width="120" height="30" as="geometry" />
        </mxCell>
        <mxCell id="4709RAhHiRO5XMdh3wOW-10" style="edgeStyle=orthogonalEdgeStyle;rounded=0;orthogonalLoop=1;jettySize=auto;html=1;entryX=0.5;entryY=1;entryDx=0;entryDy=0;" edge="1" parent="1" source="4709RAhHiRO5XMdh3wOW-7" target="4709RAhHiRO5XMdh3wOW-4">
          <mxGeometry relative="1" as="geometry" />
        </mxCell>
        <mxCell id="4709RAhHiRO5XMdh3wOW-7" value="EnrollableModuleItem" style="rounded=1;whiteSpace=wrap;html=1;" vertex="1" parent="1">
          <mxGeometry x="520" y="480" width="160" height="30" as="geometry" />
        </mxCell>
        <mxCell id="4709RAhHiRO5XMdh3wOW-9" style="edgeStyle=orthogonalEdgeStyle;rounded=0;orthogonalLoop=1;jettySize=auto;html=1;entryX=0.5;entryY=1;entryDx=0;entryDy=0;" edge="1" parent="1" source="4709RAhHiRO5XMdh3wOW-8" target="4709RAhHiRO5XMdh3wOW-5">
          <mxGeometry relative="1" as="geometry" />
        </mxCell>
        <mxCell id="4709RAhHiRO5XMdh3wOW-8" value="AdmissionsCohortModuleItem" style="rounded=1;whiteSpace=wrap;html=1;" vertex="1" parent="1">
          <mxGeometry x="360" y="600" width="200" height="30" as="geometry" />
        </mxCell>
        <mxCell id="4709RAhHiRO5XMdh3wOW-13" value="Admission" style="rounded=1;whiteSpace=wrap;html=1;" vertex="1" parent="1">
          <mxGeometry x="370" y="680" width="120" height="30" as="geometry" />
        </mxCell>
        <mxCell id="4709RAhHiRO5XMdh3wOW-18" style="edgeStyle=orthogonalEdgeStyle;rounded=0;orthogonalLoop=1;jettySize=auto;html=1;entryX=0.5;entryY=1;entryDx=0;entryDy=0;" edge="1" parent="1" source="4709RAhHiRO5XMdh3wOW-14" target="4709RAhHiRO5XMdh3wOW-16">
          <mxGeometry relative="1" as="geometry" />
        </mxCell>
        <mxCell id="4709RAhHiRO5XMdh3wOW-19" style="edgeStyle=orthogonalEdgeStyle;rounded=0;orthogonalLoop=1;jettySize=auto;html=1;entryX=0;entryY=0.5;entryDx=0;entryDy=0;" edge="1" parent="1" source="4709RAhHiRO5XMdh3wOW-14" target="4709RAhHiRO5XMdh3wOW-13">
          <mxGeometry relative="1" as="geometry" />
        </mxCell>
        <mxCell id="4709RAhHiRO5XMdh3wOW-14" value="Enrollment" style="rounded=1;whiteSpace=wrap;html=1;" vertex="1" parent="1">
          <mxGeometry x="120" y="610" width="120" height="30" as="geometry" />
        </mxCell>
        <mxCell id="4709RAhHiRO5XMdh3wOW-20" style="edgeStyle=orthogonalEdgeStyle;rounded=0;orthogonalLoop=1;jettySize=auto;html=1;entryX=0.5;entryY=1;entryDx=0;entryDy=0;" edge="1" parent="1" source="4709RAhHiRO5XMdh3wOW-15" target="4709RAhHiRO5XMdh3wOW-14">
          <mxGeometry relative="1" as="geometry" />
        </mxCell>
        <mxCell id="4709RAhHiRO5XMdh3wOW-21" style="edgeStyle=orthogonalEdgeStyle;rounded=0;orthogonalLoop=1;jettySize=auto;html=1;entryX=0.5;entryY=1;entryDx=0;entryDy=0;" edge="1" parent="1" source="4709RAhHiRO5XMdh3wOW-15" target="4709RAhHiRO5XMdh3wOW-3">
          <mxGeometry relative="1" as="geometry">
            <Array as="points">
              <mxPoint x="80" y="735" />
              <mxPoint x="80" y="430" />
              <mxPoint x="100" y="430" />
            </Array>
          </mxGeometry>
        </mxCell>
        <mxCell id="4709RAhHiRO5XMdh3wOW-15" value="EnrollmentModule" style="rounded=1;whiteSpace=wrap;html=1;" vertex="1" parent="1">
          <mxGeometry x="120" y="720" width="120" height="30" as="geometry" />
        </mxCell>
        <mxCell id="4709RAhHiRO5XMdh3wOW-16" value="Enrollable" style="rounded=1;whiteSpace=wrap;html=1;" vertex="1" parent="1">
          <mxGeometry x="120" y="480" width="120" height="30" as="geometry" />
        </mxCell>
        <mxCell id="4709RAhHiRO5XMdh3wOW-25" style="edgeStyle=orthogonalEdgeStyle;rounded=0;orthogonalLoop=1;jettySize=auto;html=1;entryX=1;entryY=0.5;entryDx=0;entryDy=0;" edge="1" parent="1" source="4709RAhHiRO5XMdh3wOW-24" target="4709RAhHiRO5XMdh3wOW-2">
          <mxGeometry relative="1" as="geometry" />
        </mxCell>
        <mxCell id="4709RAhHiRO5XMdh3wOW-24" value="ModuleCompletable ItemCompletion" style="rounded=1;whiteSpace=wrap;html=1;" vertex="1" parent="1">
          <mxGeometry x="520" y="240" width="120" height="30" as="geometry" />
        </mxCell>
      </root>
    </mxGraphModel>
  </diagram>
</mxfile>
